<?xml version="1.0" encoding="UTF-8" standalone="no"?>
<!-- Created with Inkscape (http://www.inkscape.org/) -->

<svg
   width="16.933332mm"
   height="16.933334mm"
   viewBox="0 0 16.933332 16.933334"
   version="1.1"
   id="svg5"
   inkscape:version="1.1.1 (3bf5ae0d25, 2021-09-20)"
   sodipodi:docname="x_twitter.svg"
   inkscape:export-filename="C:\Users\garfu\OneDrive\Documents\GitHub\wdd130\wrr\images\footer\x.png"
   inkscape:export-xdpi="95.999992"
   inkscape:export-ydpi="95.999992"
   xmlns:inkscape="http://www.inkscape.org/namespaces/inkscape"
   xmlns:sodipodi="http://sodipodi.sourceforge.net/DTD/sodipodi-0.dtd"
   xmlns="http://www.w3.org/2000/svg"
   xmlns:svg="http://www.w3.org/2000/svg">
  <sodipodi:namedview
     id="namedview7"
     pagecolor="#ffffff"
     bordercolor="#666666"
     borderopacity="1.0"
     inkscape:pageshadow="2"
     inkscape:pageopacity="0.0"
     inkscape:pagecheckerboard="0"
     inkscape:document-units="mm"
     showgrid="false"
     inkscape:zoom="1.3273709"
     inkscape:cx="-34.278285"
     inkscape:cy="175.15827"
     inkscape:window-width="1920"
     inkscape:window-height="1009"
     inkscape:window-x="-8"
     inkscape:window-y="-8"
     inkscape:window-maximized="1"
     inkscape:current-layer="layer1" />
  <defs
     id="defs2" />
  <g
     inkscape:label="Layer 1"
     inkscape:groupmode="layer"
     id="layer1"
     transform="translate(205.29446,-24.73104)">
    <g
       id="g1395"
       transform="matrix(0.08403361,0,0,0.08403362,-185.13463,25.560995)"
       style="stroke-width:11.9">
      <path
         id="rect1208"
         style="fill:#000000;stroke:#000000;stroke-width:75.565;paint-order:fill markers stroke;stop-color:#000000"
         d="M -202.11946,27.90604 H -76.177793 V 153.84771 H -202.11946 Z"
         inkscape:original-d="M -202.11946,27.90604 H -76.177793 V 153.84771 H -202.11946 Z" />
      <path
         style="fill:#ffffff;stroke-width:11.9"
         d="m -173.01316,121.48464 c -0.26081,-0.16546 2.64732,-3.31676 19.58321,-21.22074 4.67492,-4.942148 4.97372,-5.304338 4.71944,-5.720588 -0.26017,-0.42592 -11.58296,-16.229853 -14.2534,-19.894373 -0.70868,-0.9725 -3.00316,-4.15523 -5.09883,-7.07272 -2.09567,-2.9175 -4.1233,-5.73833 -4.50584,-6.26851 -0.38253,-0.53018 -0.69552,-1.02163 -0.69552,-1.09211 0,-0.0704 5.46166,-0.12815 12.137,-0.12815 11.29791,0 12.15922,0.0252 12.45846,0.36404 0.1768,0.20022 1.99802,2.70427 4.04715,5.56456 2.04912,2.8603 5.16441,7.19568 6.92284,9.63419 l 3.19717,4.43365 0.66104,-0.68927 c 1.98312,-2.06777 16.74453,-17.83275 17.33033,-18.50855 l 0.69229,-0.79862 h 4.45624 c 2.45094,0 4.45359,0.0702 4.45036,0.15602 -0.007,0.17878 -0.78855,1.04048 -4.76545,5.25254 -3.03323,3.21257 -5.15642,5.47159 -6.25644,6.65667 -1.30933,1.4106 -6.77549,7.19899 -8.54518,9.04893 -4.0642,4.24848 -4.13994,4.34077 -3.87077,4.71665 0.13715,0.19151 2.69239,3.74867 5.6783,7.9048 14.25828,19.846281 19.63761,27.411051 19.63761,27.615701 0,0.25752 -23.6627,0.32027 -24.04799,0.0638 -0.22397,-0.14912 -1.87501,-2.41479 -9.50984,-13.05014 -5.27103,-7.34258 -5.7896,-8.03365 -5.97706,-7.96546 -0.0917,0.0333 -1.8745,1.88603 -3.96183,4.11706 -2.08731,2.23103 -5.3471,5.69256 -7.24396,7.69229 -1.89686,1.99973 -4.37183,4.6208 -5.49995,5.82459 -1.12811,1.2038 -2.36707,2.49295 -2.75323,2.86479 l -0.70211,0.67607 -4.00746,-0.003 c -2.20411,-0.002 -4.12857,-0.08 -4.27658,-0.17392 z m 55.24258,-7.15566 c -0.28246,-0.37183 -1.89937,-2.59506 -3.59313,-4.9405 -1.69375,-2.34544 -3.42267,-4.73248 -3.84204,-5.30453 -1.53473,-2.09352 -7.69741,-10.628371 -11.8661,-16.433691 -1.64315,-2.28822 -4.30947,-5.9858 -5.92517,-8.21683 -1.61569,-2.23103 -4.36639,-6.04562 -6.11267,-8.47687 l -3.17505,-4.42045 h -4.26132 c -3.35438,0 -4.2278,0.0554 -4.10381,0.26003 0.15208,0.25106 4.19867,5.88601 6.83434,9.51697 1.74436,2.40305 6.00718,8.30434 9.99263,13.83341 3.1185,4.326343 6.38761,8.840863 14.49866,20.022041 l 3.50847,4.8365 h 4.27938 4.27937 z"
         id="path872" />
    </g>
  </g>
</svg>
